# xmcd
#
# Track frame offsets:
#	150
#	19733
#	38170
#	61885
#	79837
#	104364
#	126842
#	144597
#	160560
#	178606
#	193478
#	227906
#	260646
#	293652
#	314526
#
# Disc length: 4550 seconds
#
# Revision: 1
# Processed by: cddbd v1.5.2PL0 Copyright (c) Steve Scherf et al.
# Submitted via: EZCDAudioConverter 1.3.4.1
#
DISCID=d611c40f
DTITLE=John Martyn - 1980   Grace And Danger (Original Uk Album Mix) 
DYEAR=1980
DGENRE=
TTITLE0=Some People Are Crazy
TTITLE1=Grace And Danger
TTITLE2=Lookin' On
TTITLE3=Johnny Too Bad
TTITLE4=Sweet Little Mystery
TTITLE5=Hurt In Your Heart
TTITLE6=Baby, Please Come Home
TTITLE7=Save Some (For Me)
TTITLE8=Our Love
TTITLE9=Hi-Heel Sneakers
TTITLE10=Grace And Danger [Alternate Take]
TTITLE11=Small Hat [Alternate Take]
TTITLE12=Johnny Too Bad [Take 2]
TTITLE13=After Tomorrow Night [Take 1]
TTITLE14=Dead On Arrival
EXTD=
EXTT0=
EXTT1=
EXTT2=
EXTT3=
EXTT4=
EXTT5=
EXTT6=
EXTT7=
EXTT8=
EXTT9=
EXTT10=
EXTT11=
EXTT12=
EXTT13=
EXTT14=
PLAYORDER=
